<svg width="14" height="15" viewBox="0 0 14 15" fill="none" xmlns="http://www.w3.org/2000/svg">
<path fill-rule="evenodd" clip-rule="evenodd" d="M3.50067 3C3.50067 2.17157 4.17224 1.5 5.00067 1.5H9.00067C9.8291 1.5 10.5007 2.17157 10.5007 3V3.8335H3.50067V3ZM2.50067 4.23253V3C2.50067 1.61929 3.61996 0.5 5.00067 0.5H9.00067C10.3814 0.5 11.5007 1.61929 11.5007 3V4.23252L13.3635 8.65663C13.4438 8.74168 13.4947 8.85494 13.4996 8.98L13.5007 8.98252V9.0835V13.6668C13.5007 13.943 13.2768 14.1668 13.0007 14.1668C12.7245 14.1668 12.5007 13.943 12.5007 13.6668V12.5H1.50067V13.6668C1.50067 13.943 1.27681 14.1668 1.00067 14.1668C0.724529 14.1668 0.500671 13.943 0.500671 13.6668V12.0261C0.500226 12.0175 0.5 12.0088 0.5 12V9C0.5 8.86578 0.552886 8.74391 0.638957 8.6541L2.50067 4.23253ZM10.6687 4.8335L12.2125 8.5H1.78887L3.33266 4.8335H10.6687ZM1.50067 9.5V11.5H12.5V9.5H1.50067Z" fill="black"/>
</svg>
