<svg width="16" height="16" viewBox="0 0 16 16" fill="none" xmlns="http://www.w3.org/2000/svg">
<path fill-rule="evenodd" clip-rule="evenodd" d="M8.55957 4.99977H10.6396L9.32957 6.31977L9.99957 6.99977L11.3496 5.64977V7.84977C11.3521 7.98157 11.4056 8.10727 11.4988 8.20049C11.5921 8.2937 11.7178 8.34721 11.8496 8.34977C11.9822 8.34977 12.1094 8.29709 12.2031 8.20332C12.2969 8.10955 12.3496 7.98237 12.3496 7.84977V4.50977C12.3496 4.37716 12.2969 4.24998 12.2031 4.15621C12.1094 4.06244 11.9822 4.00977 11.8496 4.00977H8.55957C8.42696 4.00977 8.29978 4.06244 8.20602 4.15621C8.11225 4.24998 8.05957 4.37716 8.05957 4.50977C8.06219 4.64063 8.11602 4.76526 8.20951 4.85687C8.30299 4.94849 8.42868 4.99979 8.55957 4.99977Z" fill="black"/>
<path fill-rule="evenodd" clip-rule="evenodd" d="M7.75992 11.3901H5.67992L6.99992 10.0901L6.27992 9.39008L4.91992 10.7501V8.58008C4.91992 8.44747 4.86724 8.32029 4.77348 8.22652C4.67971 8.13276 4.55253 8.08008 4.41992 8.08008C4.28731 8.08008 4.16014 8.13276 4.06637 8.22652C3.9726 8.32029 3.91992 8.44747 3.91992 8.58008V11.9201C3.92122 11.9857 3.93545 12.0505 3.96178 12.1107C3.98812 12.1708 4.02605 12.2252 4.07341 12.2707C4.12077 12.3162 4.17663 12.352 4.2378 12.3759C4.29898 12.3998 4.36426 12.4114 4.42992 12.4101H7.75992C7.89253 12.4101 8.01971 12.3574 8.11347 12.2636C8.20724 12.1699 8.25992 12.0427 8.25992 11.9101C8.25992 11.7775 8.20724 11.6503 8.11347 11.5565C8.01971 11.4628 7.89253 11.4101 7.75992 11.4101V11.3901Z" fill="black"/>
<path fill-rule="evenodd" clip-rule="evenodd" d="M1.5 2C1.5 1.72386 1.72386 1.5 2 1.5H14C14.2761 1.5 14.5 1.72386 14.5 2V14C14.5 14.2761 14.2761 14.5 14 14.5H2C1.72386 14.5 1.5 14.2761 1.5 14V2ZM2.5 2.5V13.5H13.5V2.5H2.5Z" fill="black"/>
<path fill-rule="evenodd" clip-rule="evenodd" d="M11.8631 4.49654C12.0583 4.69181 12.0583 5.00839 11.8631 5.20365L4.87308 12.1937C4.67782 12.3889 4.36124 12.3889 4.16598 12.1937C3.97072 11.9984 3.97072 11.6818 4.16598 11.4865L11.156 4.49654C11.3512 4.30128 11.6678 4.30128 11.8631 4.49654Z" fill="black"/>
</svg>
