<svg width="16" height="16" viewBox="0 0 16 16" fill="none" xmlns="http://www.w3.org/2000/svg">
<path fill-rule="evenodd" clip-rule="evenodd" d="M3.33333 3.1665C2.8731 3.1665 2.5 3.5396 2.5 3.99984V13.3332C2.5 13.7934 2.8731 14.1665 3.33333 14.1665H12.6667C13.1269 14.1665 13.5 13.7934 13.5 13.3332V3.99984C13.5 3.5396 13.1269 3.1665 12.6667 3.1665H3.33333ZM1.5 3.99984C1.5 2.98732 2.32081 2.1665 3.33333 2.1665H12.6667C13.6792 2.1665 14.5 2.98732 14.5 3.99984V13.3332C14.5 14.3457 13.6792 15.1665 12.6667 15.1665H3.33333C2.32081 15.1665 1.5 14.3457 1.5 13.3332V3.99984Z" fill="black"/>
<path fill-rule="evenodd" clip-rule="evenodd" d="M10.667 0.833496C10.9431 0.833496 11.167 1.05735 11.167 1.3335V4.00016C11.167 4.27631 10.9431 4.50016 10.667 4.50016C10.3908 4.50016 10.167 4.27631 10.167 4.00016V1.3335C10.167 1.05735 10.3908 0.833496 10.667 0.833496Z" fill="black"/>
<path fill-rule="evenodd" clip-rule="evenodd" d="M5.33301 0.833496C5.60915 0.833496 5.83301 1.05735 5.83301 1.3335V4.00016C5.83301 4.27631 5.60915 4.50016 5.33301 4.50016C5.05687 4.50016 4.83301 4.27631 4.83301 4.00016V1.3335C4.83301 1.05735 5.05687 0.833496 5.33301 0.833496Z" fill="black"/>
<path fill-rule="evenodd" clip-rule="evenodd" d="M1.5 6.6665C1.5 6.39036 1.72386 6.1665 2 6.1665H14C14.2761 6.1665 14.5 6.39036 14.5 6.6665C14.5 6.94265 14.2761 7.1665 14 7.1665H2C1.72386 7.1665 1.5 6.94265 1.5 6.6665Z" fill="black"/>
</svg>
