<svg width="16" height="16" viewBox="0 0 16 16" fill="none" xmlns="http://www.w3.org/2000/svg">
<path d="M14.6496 8.0598H14.4296V3.1898C14.3827 2.66217 14.152 2.16777 13.7777 1.79294C13.4034 1.41812 12.9093 1.18668 12.3817 1.13904C11.8542 1.09141 11.3266 1.2306 10.8912 1.53232C10.4558 1.83403 10.1403 2.2791 9.99961 2.7898C9.59663 2.88244 9.23691 3.10882 8.97905 3.43205C8.72119 3.75528 8.5804 4.15631 8.57961 4.5698C8.57961 4.70241 8.63229 4.82958 8.72606 4.92335C8.81982 5.01712 8.947 5.0698 9.07961 5.0698H11.7396C11.8749 5.06213 12.0021 5.00292 12.0951 4.90435C12.1881 4.80577 12.2398 4.67532 12.2396 4.5398C12.2395 4.16047 12.1195 3.79088 11.8968 3.48379C11.6741 3.1767 11.3601 2.94781 10.9996 2.8298C11.0734 2.57096 11.2294 2.34316 11.4441 2.1808C11.6588 2.01844 11.9205 1.93034 12.1896 1.9298C12.523 1.93241 12.8419 2.066 13.0777 2.30173C13.3134 2.53747 13.447 2.85643 13.4496 3.1898V8.0598H1.34961C1.217 8.0598 1.08982 8.11248 0.996056 8.20625C0.902288 8.30001 0.849609 8.42719 0.849609 8.5598C0.852169 8.69161 0.90567 8.8173 0.998889 8.91052C1.09211 9.00374 1.2178 9.05724 1.34961 9.0598H1.48961V11.0598C1.49039 11.5939 1.66287 12.1135 1.98158 12.5421C2.30029 12.9706 2.74835 13.2854 3.25961 13.4398C3.20715 13.5736 3.18002 13.7161 3.17961 13.8598C3.17961 14.1807 3.30709 14.4885 3.53401 14.7154C3.76093 14.9423 4.0687 15.0698 4.38961 15.0698C4.71052 15.0698 5.01829 14.9423 5.24521 14.7154C5.47213 14.4885 5.59961 14.1807 5.59961 13.8598C5.59512 13.7573 5.57488 13.6561 5.53961 13.5598H10.3996C10.3643 13.6561 10.3441 13.7573 10.3396 13.8598C10.3396 14.1807 10.4671 14.4885 10.694 14.7154C10.9209 14.9423 11.2287 15.0698 11.5496 15.0698C11.8705 15.0698 12.1783 14.9423 12.4052 14.7154C12.6321 14.4885 12.7596 14.1807 12.7596 13.8598C12.7582 13.7129 12.7311 13.5674 12.6796 13.4298C13.1863 13.2737 13.6297 12.9594 13.9447 12.5328C14.2596 12.1063 14.4296 11.59 14.4296 11.0598V9.0598H14.6496C14.7814 9.05724 14.9071 9.00374 15.0003 8.91052C15.0935 8.8173 15.147 8.69161 15.1496 8.5598C15.1496 8.42719 15.0969 8.30001 15.0032 8.20625C14.9094 8.11248 14.7822 8.0598 14.6496 8.0598ZM9.72961 4.0598C9.80517 3.9584 9.90316 3.87584 10.0159 3.8186C10.1287 3.76135 10.2532 3.73096 10.3796 3.7298H10.4396C10.5661 3.73096 10.6905 3.76135 10.8033 3.8186C10.9161 3.87584 11.014 3.9584 11.0896 4.0598H9.72961ZM4.17961 13.8598C4.17961 13.8041 4.20173 13.7507 4.24112 13.7113C4.2805 13.6719 4.33391 13.6498 4.38961 13.6498C4.4453 13.6498 4.49872 13.6719 4.5381 13.7113C4.57748 13.7507 4.59961 13.8041 4.59961 13.8598C4.59961 14.0898 4.17961 14.0898 4.17961 13.8598ZM11.3396 13.8598C11.3396 13.8041 11.3617 13.7507 11.4011 13.7113C11.4405 13.6719 11.4939 13.6498 11.5496 13.6498C11.6053 13.6498 11.6587 13.6719 11.6981 13.7113C11.7375 13.7507 11.7596 13.8041 11.7596 13.8598C11.7596 14.0898 11.3396 14.0898 11.3396 13.8598ZM13.4296 11.0598C13.4296 11.4576 13.2716 11.8392 12.9903 12.1205C12.709 12.4018 12.3274 12.5598 11.9296 12.5598H3.99961C3.60178 12.5598 3.22025 12.4018 2.93895 12.1205C2.65764 11.8392 2.49961 11.4576 2.49961 11.0598V9.0598H13.4296V11.0598Z" fill="black"/>
</svg>
