<svg width="16" height="16" viewBox="0 0 16 16" fill="none" xmlns="http://www.w3.org/2000/svg">
<path fill-rule="evenodd" fill="#7C98A7" clip-rule="evenodd" d="M8.13737 0.519238C8.04759 0.493587 7.95242 0.493587 7.86265 0.519238L0.862646 2.51924C0.597129 2.5951 0.443383 2.87184 0.519245 3.13736C0.595107 3.40288 0.87185 3.55662 1.13737 3.48076L8.00001 1.52001L14.8626 3.48076C15.1282 3.55662 15.4049 3.40288 15.4808 3.13736C15.5566 2.87184 15.4029 2.5951 15.1374 2.51924L8.13737 0.519238ZM3.78847 3.80769C3.8661 3.62137 4.04816 3.5 4.25001 3.5H11.75C11.9519 3.5 12.1339 3.62137 12.2115 3.80769L13.4615 6.80769L13.5769 7.08444C14.4002 7.33205 15 8.09598 15 9V12V13H14H13.5V14C13.5 14.8284 12.8284 15.5 12 15.5C11.1716 15.5 10.5 14.8284 10.5 14V13H5.50001V14C5.50001 14.8284 4.82843 15.5 4.00001 15.5C3.17158 15.5 2.50001 14.8284 2.50001 14V13H2.00001H1.00001V12V9C1.00001 8.09598 1.5998 7.33205 2.42315 7.08444L2.53847 6.80769L3.78847 3.80769ZM14 12H13.5H12.5H11.5H10.5H5.50001H4.50001H3.50001H2.50001H2.00001V9C2.00001 8.44772 2.44772 8 3.00001 8H13C13.5523 8 14 8.44772 14 9V12ZM12.5 14V13H11.5V14C11.5 14.2761 11.7239 14.5 12 14.5C12.2761 14.5 12.5 14.2761 12.5 14ZM3.50001 13V14C3.50001 14.2761 3.72386 14.5 4.00001 14.5C4.27615 14.5 4.50001 14.2761 4.50001 14V13H3.50001ZM11.4167 4.5L12.4583 7H3.54167L4.58334 4.5H11.4167ZM5.00001 10C5.00001 10.5523 4.55229 11 4.00001 11C3.44772 11 3.00001 10.5523 3.00001 10C3.00001 9.44771 3.44772 9 4.00001 9C4.55229 9 5.00001 9.44771 5.00001 10ZM12 11C12.5523 11 13 10.5523 13 10C13 9.44771 12.5523 9 12 9C11.4477 9 11 9.44771 11 10C11 10.5523 11.4477 11 12 11Z"/>
</svg>
