<svg width="16" height="17" viewBox="0 0 16 17" fill="none" xmlns="http://www.w3.org/2000/svg">
<path fill-rule="evenodd" clip-rule="evenodd" d="M3 3H7V4.33252H5.16797C4.89183 4.33252 4.66797 4.55638 4.66797 4.83252C4.66797 5.10866 4.89183 5.33252 5.16797 5.33252H7V6.33203H5.83594C5.5598 6.33203 5.33594 6.55589 5.33594 6.83203C5.33594 7.10817 5.5598 7.33203 5.83594 7.33203H7V8.33252H5.16797C4.89183 8.33252 4.66797 8.55638 4.66797 8.83252C4.66797 9.10866 4.89183 9.33252 5.16797 9.33252H7V10.332H5.83594C5.5598 10.332 5.33594 10.5559 5.33594 10.832C5.33594 11.1082 5.5598 11.332 5.83594 11.332H7V12.3325H5.16797C4.89183 12.3325 4.66797 12.5564 4.66797 12.8325C4.66797 13.1087 4.89183 13.3325 5.16797 13.3325H7V14.3333H3V3ZM8 12.8689V14.3333V15.3333H7H3H2V14.3333V3V2H3H7H8V3V4.79616C8.00086 4.80817 8.0013 4.82029 8.0013 4.83252C8.0013 4.84475 8.00086 4.85687 8 4.86888V6.78068C8.00172 6.79756 8.0026 6.81469 8.0026 6.83203C8.0026 6.84937 8.00172 6.8665 8 6.88338V8.79616C8.00086 8.80817 8.0013 8.82029 8.0013 8.83252C8.0013 8.84475 8.00086 8.85687 8 8.86888V10.7807C8.00172 10.7976 8.0026 10.8147 8.0026 10.832C8.0026 10.8494 8.00172 10.8665 8 10.8834V12.7962C8.00086 12.8082 8.0013 12.8203 8.0013 12.8325C8.0013 12.8447 8.00086 12.8569 8 12.8689Z" fill="black"/>
<path fill-rule="evenodd" clip-rule="evenodd" d="M14.2011 5.57239C14.3964 5.76765 14.713 5.76765 14.9082 5.57239C15.1035 5.37713 15.1035 5.06055 14.9082 4.86529L12.5512 2.50826C12.356 2.313 12.0394 2.313 11.8441 2.50826L9.48709 4.86529C9.29183 5.06055 9.29183 5.37713 9.48709 5.57239C9.68235 5.76765 9.99894 5.76765 10.1942 5.57239L11.668 4.09862L11.668 12.8438L10.4707 11.6465C10.2755 11.4513 9.9589 11.4513 9.76364 11.6465C9.56837 11.8418 9.56837 12.1584 9.76364 12.3536L12.1207 14.7107C12.3159 14.9059 12.6325 14.9059 12.8278 14.7107L15.1848 12.3536C15.38 12.1584 15.38 11.8418 15.1848 11.6465C14.9895 11.4513 14.6729 11.4513 14.4777 11.6465L12.668 13.4562L12.668 4.03923L14.2011 5.57239Z" fill="black"/>
</svg>
