<svg width="16" height="16" viewBox="0 0 16 16" fill="none" xmlns="http://www.w3.org/2000/svg">
<path d="M11.0704 13.33H9.63035V12.33H11.0704C11.0889 12.33 11.1067 12.3226 11.1198 12.3095C11.133 12.2964 11.1404 12.2786 11.1404 12.26V2.08C11.1405 2.06041 11.1335 2.04144 11.1206 2.02669C11.1077 2.01195 11.0898 2.00245 11.0704 2H4.93035C4.91091 2.00245 4.89305 2.01195 4.88014 2.02669C4.86724 2.04144 4.8602 2.06041 4.86035 2.08V12.26C4.86035 12.2786 4.86773 12.2964 4.88085 12.3095C4.89398 12.3226 4.91179 12.33 4.93035 12.33V13.33C4.64657 13.33 4.37441 13.2173 4.17375 13.0166C3.97308 12.8159 3.86035 12.5438 3.86035 12.26V2.08C3.86034 1.79529 3.97275 1.52209 4.17313 1.31984C4.37351 1.11758 4.64565 1.00264 4.93035 1H11.0704C11.355 1.00264 11.6272 1.11758 11.8276 1.31984C12.028 1.52209 12.1404 1.79529 12.1404 2.08V12.26C12.1404 12.5438 12.0276 12.8159 11.827 13.0166C11.6263 13.2173 11.3541 13.33 11.0704 13.33Z" fill="black"/>
<path d="M9.13023 15.0002C8.997 15.0013 8.86473 14.9776 8.74023 14.9302L4.74023 13.3402C4.48396 13.2201 4.26603 13.0312 4.11067 12.7947C3.95532 12.5581 3.86862 12.2831 3.86023 12.0002V2.00018C3.85351 1.84244 3.88663 1.68555 3.95654 1.54398C4.02645 1.40242 4.13089 1.28074 4.26023 1.19018C4.38811 1.1074 4.53455 1.05766 4.6864 1.04544C4.83825 1.03323 4.99075 1.05891 5.13023 1.12018L9.13023 2.71018C9.37736 2.82774 9.58843 3.00944 9.74145 3.23633C9.89447 3.46322 9.98384 3.727 10.0002 4.00018V14.0002C10.0115 14.1218 9.99698 14.2445 9.95769 14.3601C9.91839 14.4758 9.85518 14.5819 9.77217 14.6715C9.68916 14.7611 9.5882 14.8323 9.47587 14.8803C9.36355 14.9283 9.24237 14.9521 9.12023 14.9502L9.13023 15.0002ZM4.86023 2.05018V12.0002C4.86967 12.0863 4.89898 12.1691 4.94583 12.2419C4.99268 12.3148 5.0558 12.3758 5.13023 12.4202L9.00023 14.0002V4.00018C8.99078 3.91406 8.96148 3.8313 8.91463 3.75843C8.86777 3.68555 8.80465 3.62453 8.73023 3.58018L4.86023 2.05018Z" fill="black"/>
<path d="M8.22988 9.07012C8.42318 9.07012 8.57988 8.91342 8.57988 8.72012C8.57988 8.52682 8.42318 8.37012 8.22988 8.37012C8.03658 8.37012 7.87988 8.52682 7.87988 8.72012C7.87988 8.91342 8.03658 9.07012 8.22988 9.07012Z" fill="black"/>
</svg>
